<?xml version="1.0" encoding="utf-8"?>
<!DOCTYPE svg PUBLIC "-//W3C//DTD SVG 20010904//EN" "http://www.w3.org/TR/2001/REC-SVG-20010904/DTD/svg10.dtd">
<svg version="1.0" xmlns="http://www.w3.org/2000/svg" width="2002pt" height="922pt" viewBox="0 0 2002 922" style="" preserveAspectRatio="xMidYMid meet">
<g fill="#DC1921FF" stroke="#DC1921FF">
<path d="M 1085.500 21.651 C 1082.200 21.875 1073.200 22.931 1065.500 23.998 C 1005.246 32.345 953.568 52.820 898.000 90.363 C 875.300 105.700 861.245 116.671 840.277 135.422 C 823.309 150.596 811.417 163.046 795.493 182.308 C 762.207 222.571 734.300 271.947 719.368 317.000 C 710.104 344.948 702.571 383.674 699.920 416.968 C 699.331 424.376 698.631 430.789 698.365 431.218 C 698.099 431.648 694.378 432.000 690.096 432.000 C 683.823 432.000 681.988 432.355 680.655 433.829 C 679.745 434.835 679.000 435.924 679.000 436.250 C 679.000 437.419 667.639 456.628 663.385 462.651 C 652.488 478.079 637.661 488.000 625.501 488.000 C 622.965 488.000 619.253 486.934 615.929 485.250 C 611.392 482.952 610.048 481.608 607.750 477.071 C 603.227 468.141 603.760 461.099 610.567 439.866 C 616.770 420.520 664.290 277.886 669.492 263.000 C 673.798 250.681 692.146 194.610 699.434 171.500 C 702.556 161.600 705.975 150.800 707.031 147.500 C 708.087 144.200 709.914 138.350 711.093 134.500 C 712.271 130.650 713.829 125.700 714.555 123.500 C 715.281 121.300 716.838 116.125 718.014 112.000 C 719.190 107.875 720.799 102.475 721.588 100.000 C 725.792 86.823 737.940 43.274 737.977 41.250 C 737.995 40.259 718.359 40.000 643.067 40.000 L 548.135 40.000 547.495 42.250 C 547.143 43.488 545.353 49.225 543.516 55.000 C 541.680 60.775 538.295 71.575 535.994 79.000 C 533.694 86.425 531.207 94.300 530.468 96.500 C 529.729 98.700 528.157 103.875 526.974 108.000 C 525.791 112.125 524.199 117.300 523.435 119.500 C 522.672 121.700 517.964 137.000 512.973 153.500 C 480.758 260.007 459.942 316.008 430.867 374.394 C 399.537 437.308 383.595 456.441 346.572 475.567 C 329.593 484.338 324.974 485.507 307.500 485.457 C 292.809 485.415 292.340 485.347 284.758 482.117 C 268.677 475.268 257.953 460.469 254.923 440.944 C 253.690 432.997 254.838 419.018 257.383 410.980 C 258.163 408.516 259.796 403.125 261.012 399.000 C 262.228 394.875 263.805 389.700 264.518 387.500 C 265.231 385.300 266.783 379.900 267.967 375.500 C 269.151 371.100 270.704 365.700 271.419 363.500 C 272.134 361.300 273.717 356.125 274.938 352.000 C 276.159 347.875 277.761 342.700 278.499 340.500 C 279.236 338.300 282.404 328.400 285.539 318.500 C 292.314 297.100 298.488 278.557 316.006 227.000 C 342.448 149.180 360.179 93.695 366.019 70.500 C 366.434 68.850 368.120 62.550 369.765 56.500 C 371.410 50.450 373.044 44.263 373.397 42.750 L 374.038 40.000 204.904 40.000 L 35.770 40.000 33.283 42.750 C 31.624 44.585 28.161 53.323 22.882 69.000 C 2.381 129.873 3.154 126.741 7.412 131.694 L 9.825 134.500 65.662 135.076 C 104.340 135.474 122.833 136.020 125.839 136.851 C 141.790 141.260 149.109 151.223 147.675 166.578 C 146.430 179.909 128.874 238.588 114.488 277.500 C 113.064 281.350 111.535 285.625 111.088 287.000 C 110.641 288.375 105.753 301.875 100.224 317.000 C 71.186 396.444 60.091 436.302 52.909 486.971 C 47.670 523.937 53.392 553.667 71.313 582.598 C 85.131 604.903 105.134 622.112 129.000 632.226 C 146.700 639.727 166.773 643.000 195.069 643.000 C 250.966 643.000 304.824 626.061 355.000 592.698 C 375.509 579.061 385.768 570.412 408.227 547.824 C 417.427 538.571 425.384 531.000 425.910 531.000 C 427.319 531.000 427.776 533.408 428.473 544.500 C 430.653 579.169 444.118 611.771 462.141 626.017 C 469.351 631.717 474.893 634.336 486.000 637.295 C 533.636 649.986 581.169 640.865 626.708 610.293 C 654.622 591.554 684.057 561.803 708.079 528.049 C 713.187 520.872 717.846 515.007 718.433 515.015 C 720.399 515.044 721.623 516.468 724.003 521.500 C 731.980 538.364 747.067 559.952 760.915 574.317 C 785.075 599.379 810.703 615.576 843.489 626.504 C 898.306 644.775 958.179 647.184 1017.500 633.505 C 1026.096 631.523 1032.163 629.752 1047.000 624.894 C 1120.932 600.686 1189.392 548.610 1236.168 481.000 C 1250.934 459.657 1267.368 429.237 1276.009 407.253 C 1278.657 400.516 1279.022 398.732 1278.003 397.503 C 1276.919 396.197 1269.383 396.004 1220.628 396.033 L 1164.500 396.066 1158.518 404.283 C 1121.225 455.508 1083.884 491.585 1051.841 507.348 C 1032.870 516.681 1017.307 520.453 998.000 520.400 C 986.811 520.369 982.752 519.916 974.289 517.755 C 946.409 510.634 927.132 495.836 916.472 473.373 C 909.466 458.610 905.355 431.249 906.349 406.000 C 907.132 386.135 910.309 364.676 914.567 350.500 C 917.370 341.168 920.162 332.512 921.503 329.000 C 933.931 296.456 946.612 272.195 968.810 238.500 C 1008.758 177.859 1052.292 139.552 1098.837 124.083 C 1124.543 115.540 1155.522 114.853 1176.235 122.367 C 1197.438 130.060 1212.650 144.853 1220.072 165.000 C 1222.318 171.095 1222.461 172.746 1222.370 191.500 C 1222.253 215.609 1220.349 226.916 1209.623 267.204 C 1206.447 279.135 1206.345 280.003 1207.949 281.454 C 1209.450 282.812 1216.859 283.000 1268.860 283.000 C 1321.091 283.000 1328.132 283.180 1328.650 284.531 C 1328.973 285.373 1326.287 294.935 1322.680 305.781 C 1307.127 352.548 1300.585 387.821 1300.568 425.000 C 1300.557 447.239 1301.645 457.592 1306.085 477.500 C 1309.657 493.515 1318.117 515.867 1325.708 529.346 C 1327.518 532.561 1329.000 535.394 1329.000 535.641 C 1329.000 536.761 1339.988 552.362 1346.509 560.500 C 1375.789 597.040 1416.330 622.107 1464.500 633.453 C 1488.444 639.093 1501.337 640.399 1532.500 640.343 C 1556.743 640.299 1563.878 639.940 1576.000 638.152 C 1644.444 628.060 1697.884 605.673 1747.000 566.520 C 1799.841 524.397 1841.668 470.334 1867.939 410.205 C 1872.560 399.628 1872.747 398.470 1870.066 397.035 C 1867.042 395.417 1754.846 395.623 1752.845 397.250 C 1752.000 397.938 1747.005 405.025 1741.746 413.000 C 1703.861 470.455 1654.653 509.659 1610.500 517.565 C 1601.086 519.250 1584.817 519.434 1576.434 517.949 C 1547.882 512.892 1521.858 493.742 1509.235 468.500 C 1496.220 442.473 1494.545 405.029 1504.494 362.500 C 1519.088 300.112 1558.198 229.124 1604.398 181.165 C 1607.754 177.681 1615.280 170.606 1621.122 165.442 C 1672.881 119.692 1725.930 108.321 1776.000 132.242 C 1784.894 136.491 1787.657 138.425 1794.062 144.879 C 1802.175 153.056 1806.140 160.002 1809.545 172.000 C 1812.333 181.826 1812.115 207.558 1809.112 223.000 C 1806.724 235.282 1801.729 255.180 1797.405 269.644 C 1795.949 274.515 1794.699 279.400 1794.629 280.500 C 1794.502 282.477 1795.204 282.503 1854.763 282.758 C 1905.803 282.976 1915.563 282.792 1918.527 281.553 C 1920.453 280.749 1922.212 279.507 1922.438 278.795 C 1924.853 271.160 1942.021 218.132 1944.549 210.500 C 1946.371 205.000 1953.565 182.950 1960.537 161.500 C 1976.540 112.262 1986.878 80.587 1993.113 61.687 C 1998.806 44.433 1999.132 41.381 1995.435 39.975 C 1992.513 38.865 1944.087 38.671 1915.875 39.657 L 1897.250 40.308 1895.425 43.404 C 1892.545 48.292 1885.187 55.700 1880.466 58.467 C 1876.594 60.736 1875.070 60.999 1865.822 60.994 C 1856.404 60.988 1854.536 60.648 1844.500 57.114 C 1838.450 54.984 1827.200 50.333 1819.500 46.779 C 1800.778 38.138 1783.934 32.985 1756.763 27.587 C 1731.412 22.550 1697.034 21.245 1671.500 24.349 C 1605.991 32.314 1548.096 54.250 1494.000 91.602 C 1456.985 117.160 1422.411 149.949 1391.824 188.500 C 1376.333 208.024 1359.735 232.275 1346.509 254.706 C 1341.632 262.978 1339.379 265.152 1338.381 262.551 C 1338.083 261.773 1340.333 253.793 1343.383 244.818 C 1346.432 235.843 1354.147 213.200 1360.527 194.500 C 1366.907 175.800 1373.421 156.675 1375.004 152.000 C 1376.587 147.325 1381.040 134.275 1384.901 123.000 C 1408.058 55.362 1411.856 43.788 1411.338 42.439 C 1411.023 41.617 1409.947 40.507 1408.948 39.972 C 1407.845 39.382 1388.474 39.000 1359.613 39.000 L 1312.094 39.000 1310.338 42.750 C 1309.372 44.813 1306.089 48.977 1303.041 52.005 C 1295.756 59.243 1289.840 61.421 1279.152 60.803 C 1271.943 60.385 1270.265 59.797 1253.470 51.796 C 1221.917 36.764 1198.479 29.506 1163.500 23.935 C 1152.984 22.259 1144.864 21.805 1121.000 21.554 C 1104.775 21.384 1088.800 21.427 1085.500 21.651 "/></g>
<g fill="#1E191AFF" stroke="#1E191AFF">
<path d="M 585.500 746.048 C 568.553 748.755 560.317 749.994 559.000 750.034 C 558.173 750.059 558.723 750.744 560.225 751.559 C 561.724 752.372 563.411 753.900 563.975 754.953 C 564.593 756.108 565.000 766.355 565.000 780.764 L 565.000 804.659 558.783 801.580 C 552.874 798.653 551.992 798.505 541.033 798.593 C 531.112 798.673 528.552 799.052 522.720 801.309 C 513.575 804.848 506.078 809.995 499.536 817.223 C 493.162 824.267 486.763 836.794 484.982 845.718 C 483.433 853.474 484.186 871.225 486.414 879.500 C 490.840 895.934 500.443 908.239 513.927 914.754 C 521.194 918.265 521.924 918.412 532.000 918.376 C 543.791 918.333 550.216 916.341 560.230 909.619 L 565.500 906.082 565.793 912.415 L 566.086 918.749 576.793 915.833 C 582.682 914.229 590.200 912.212 593.500 911.350 C 596.800 910.488 599.633 909.662 599.795 909.513 C 599.957 909.365 598.720 907.873 597.045 906.199 L 594.000 903.154 594.000 824.077 C 594.000 749.385 593.903 745.007 592.250 745.125 C 591.288 745.193 588.250 745.609 585.500 746.048 M 555.572 811.090 C 557.262 811.611 560.080 813.519 561.834 815.329 L 565.024 818.620 564.762 858.060 L 564.500 897.500 559.000 900.329 C 554.081 902.859 552.707 903.115 545.983 902.758 C 537.179 902.289 531.618 899.564 525.149 892.546 C 519.659 886.590 516.629 880.113 514.498 869.780 C 512.501 860.094 512.861 847.613 515.404 838.394 C 521.358 816.808 537.822 805.617 555.572 811.090 "/></g>
<g fill="#1E191AFF" stroke="#1E191AFF">
<path d="M 1011.500 745.919 C 1000.901 748.895 992.682 756.056 988.959 765.559 C 987.027 770.489 986.535 774.052 986.065 786.500 L 985.500 801.500 978.750 801.796 L 972.000 802.091 972.000 807.546 L 972.000 813.000 979.027 813.000 L 986.054 813.000 985.777 862.396 C 985.514 909.353 985.406 911.895 983.595 913.896 L 981.690 916.000 1000.345 916.000 C 1018.733 916.000 1018.973 915.973 1017.082 914.082 C 1014.170 911.170 1013.879 905.456 1014.203 857.500 L 1014.500 813.500 1035.750 813.230 L 1057.000 812.960 1057.000 861.845 C 1057.000 909.787 1056.960 910.781 1054.927 913.365 L 1052.855 916.000 1071.500 916.000 L 1090.145 916.000 1088.073 913.365 C 1086.040 910.781 1086.000 909.786 1086.000 861.865 L 1086.000 813.000 1101.000 813.000 L 1116.000 813.000 1116.000 807.500 L 1116.000 802.000 1101.000 802.000 L 1086.000 802.000 1086.000 788.049 C 1086.000 780.376 1086.490 771.813 1087.089 769.020 C 1089.413 758.186 1099.442 752.074 1107.802 756.398 C 1111.556 758.339 1113.453 760.644 1116.972 767.541 L 1120.012 773.500 1119.756 761.530 L 1119.500 749.559 1114.500 747.561 C 1110.354 745.905 1107.108 745.558 1095.500 745.532 L 1081.500 745.500 1075.000 749.079 C 1067.545 753.183 1062.504 759.104 1059.580 767.191 C 1058.129 771.206 1057.550 776.101 1057.206 787.270 L 1056.751 802.039 1035.626 801.770 L 1014.500 801.500 1014.198 792.500 C 1013.796 780.495 1015.586 767.509 1018.311 762.661 C 1022.237 755.675 1031.255 753.029 1037.715 756.967 C 1041.030 758.989 1045.695 765.475 1047.055 769.953 C 1047.530 771.519 1047.861 768.058 1047.914 760.966 L 1048.000 749.431 1043.250 747.608 C 1037.940 745.570 1016.758 744.443 1011.500 745.919 "/></g>
<g fill="#1E191AFF" stroke="#1E191AFF">
<path d="M 268.500 798.615 C 263.881 799.315 253.945 803.093 249.500 805.839 C 237.546 813.226 228.873 824.448 224.423 838.285 C 220.828 849.465 220.525 867.955 223.768 878.171 C 230.015 897.845 241.527 910.050 259.500 916.054 C 269.178 919.286 288.525 919.342 297.320 916.163 C 321.627 907.377 337.000 884.506 337.000 857.131 C 337.000 839.788 331.322 825.324 320.027 813.897 C 309.457 803.205 299.483 799.123 282.500 798.538 C 276.450 798.330 270.150 798.365 268.500 798.615 M 284.715 809.593 C 294.240 812.764 301.570 823.095 305.578 839.000 C 308.202 849.410 308.175 872.688 305.529 882.000 C 301.381 896.593 294.426 904.866 284.422 907.105 C 264.542 911.554 250.034 889.941 250.008 855.838 C 249.989 831.772 258.021 814.097 271.000 809.640 C 276.782 807.655 278.873 807.648 284.715 809.593 "/></g>
<g fill="#1E191AFF" stroke="#1E191AFF">
<path d="M 891.500 798.630 C 885.313 799.592 875.927 803.248 870.294 806.888 C 853.775 817.565 844.034 837.081 844.034 859.500 C 844.034 877.612 849.382 891.376 860.979 903.110 C 872.065 914.325 882.497 918.361 900.500 918.400 C 910.515 918.421 913.658 918.035 919.500 916.064 C 937.892 909.858 950.754 896.280 956.976 876.500 C 960.085 866.618 960.074 848.531 956.953 838.500 C 952.317 823.601 945.416 814.191 933.500 806.517 C 925.291 801.231 916.940 798.881 905.008 798.499 C 899.229 798.314 893.150 798.373 891.500 798.630 M 906.940 809.479 C 913.223 811.695 916.455 814.405 920.861 821.149 C 927.468 831.261 929.437 840.276 929.453 860.500 C 929.468 879.373 928.371 885.028 922.794 894.830 C 917.195 904.671 907.030 909.406 896.783 906.948 C 892.691 905.966 890.468 904.597 886.476 900.598 C 878.349 892.458 874.608 882.994 872.999 866.500 C 871.149 847.534 874.314 829.651 881.358 819.273 C 885.004 813.901 888.061 811.450 893.558 809.492 C 898.677 807.668 901.800 807.665 906.940 809.479 "/></g>
<g fill="#1E191AFF" stroke="#1E191AFF">
<path d="M 398.022 799.073 C 391.145 800.299 377.621 806.891 372.975 811.283 C 364.941 818.876 360.477 825.663 355.976 837.125 C 353.430 843.610 352.175 864.346 353.805 873.000 C 357.755 893.980 371.018 909.535 390.500 916.039 C 399.810 919.147 418.536 919.421 427.000 916.574 C 449.200 909.105 463.421 891.988 467.356 868.000 C 470.765 847.223 465.160 828.272 451.500 814.384 C 440.630 803.333 430.675 799.114 414.000 798.489 C 408.225 798.273 401.035 798.536 398.022 799.073 M 416.375 809.737 C 426.294 813.293 433.402 824.128 437.001 841.178 C 440.589 858.178 438.903 880.013 433.058 892.236 C 429.764 899.124 423.766 904.695 417.706 906.495 C 411.431 908.358 410.573 908.359 404.348 906.511 C 390.490 902.395 381.099 882.022 381.065 856.000 C 381.037 834.473 387.921 816.712 398.392 811.297 C 405.463 807.641 409.539 807.287 416.375 809.737 "/></g>
<g fill="#1E191AFF" stroke="#1E191AFF">
<path d="M 1571.000 798.718 C 1569.075 798.936 1562.584 799.989 1556.575 801.058 C 1550.566 802.126 1544.266 803.029 1542.575 803.063 C 1539.992 803.117 1539.820 803.258 1541.500 803.945 C 1542.600 804.396 1544.400 805.764 1545.500 806.987 C 1547.445 809.149 1547.500 810.618 1547.500 860.500 C 1547.500 909.535 1547.416 911.883 1545.595 913.895 L 1543.690 916.000 1562.000 916.000 L 1580.310 916.000 1578.405 913.896 C 1576.604 911.907 1576.484 909.447 1576.209 868.744 L 1575.918 825.695 1578.596 822.900 C 1583.325 817.964 1591.089 815.000 1599.292 815.000 C 1609.901 815.000 1614.906 817.916 1619.033 826.500 C 1620.832 830.242 1620.957 833.120 1620.978 871.128 C 1620.997 906.039 1620.789 911.930 1619.500 913.000 C 1618.675 913.685 1618.000 914.640 1618.000 915.122 C 1618.000 915.605 1626.110 916.000 1636.023 916.000 L 1654.046 916.000 1652.572 913.750 C 1651.339 911.867 1651.073 904.593 1650.946 869.154 L 1650.794 826.808 1654.147 823.281 C 1664.080 812.835 1681.150 812.066 1690.173 821.658 C 1696.311 828.183 1696.500 829.694 1696.500 872.169 L 1696.500 910.838 1694.076 913.419 L 1691.651 916.000 1710.349 916.000 L 1729.046 916.000 1727.273 913.296 C 1725.664 910.842 1725.454 906.517 1725.000 866.546 L 1724.500 822.500 1721.710 816.818 C 1718.321 809.916 1713.704 805.703 1705.047 801.610 C 1698.941 798.722 1697.759 798.516 1687.500 798.549 C 1678.149 798.579 1675.675 798.943 1671.000 800.975 C 1664.144 803.956 1657.867 808.142 1651.863 813.739 L 1647.226 818.062 1644.591 813.565 C 1641.626 808.506 1638.025 805.509 1630.000 801.423 C 1625.100 798.928 1623.409 798.616 1614.500 798.561 C 1602.180 798.486 1595.283 800.795 1584.304 808.673 C 1580.220 811.603 1576.681 814.000 1576.439 814.000 C 1576.198 814.000 1576.000 810.400 1576.000 806.000 C 1576.000 801.600 1575.663 798.072 1575.250 798.160 C 1574.838 798.248 1572.925 798.499 1571.000 798.718 "/></g>
<g fill="#1E191AFF" stroke="#1E191AFF">
<path d="M 111.000 745.964 C 59.688 753.635 26.519 798.642 35.433 848.500 C 40.575 877.261 61.298 901.651 89.407 912.025 C 103.303 917.154 110.803 918.371 128.000 918.290 C 144.972 918.211 155.891 916.723 173.000 912.161 C 186.517 908.556 202.022 902.368 201.965 900.600 C 201.945 899.995 201.286 898.375 200.500 897.000 C 199.383 895.046 199.063 889.672 199.035 872.390 C 199.000 850.499 199.025 850.243 201.470 846.640 L 203.940 843.000 183.985 843.000 L 164.029 843.000 166.011 846.250 C 167.842 849.253 167.993 851.339 167.996 873.730 L 168.000 897.959 164.073 899.963 C 161.913 901.064 156.632 902.930 152.336 904.109 C 145.636 905.947 142.816 906.174 132.512 905.703 C 120.871 905.172 114.262 903.729 104.962 899.688 C 96.158 895.862 84.001 884.586 78.110 874.782 C 68.717 859.148 64.522 831.197 68.605 811.452 C 73.971 785.505 88.975 768.045 112.500 760.372 C 123.437 756.804 141.080 756.524 151.189 759.758 C 167.897 765.102 179.978 774.897 187.875 789.500 L 190.038 793.500 189.497 782.500 C 189.200 776.450 188.710 768.307 188.408 764.405 L 187.858 757.309 182.679 755.243 C 175.683 752.452 165.963 749.432 157.500 747.419 C 149.555 745.529 120.079 744.607 111.000 745.964 "/></g>
<g fill="#1E191AFF" stroke="#1E191AFF">
<path d="M 746.500 745.988 C 732.302 748.047 714.545 755.616 702.909 764.570 C 666.419 792.648 659.523 849.492 688.302 884.974 C 700.023 899.425 718.642 910.963 738.500 916.080 C 751.082 919.322 776.784 919.312 791.000 916.060 C 802.192 913.499 812.365 910.004 820.000 906.095 C 825.342 903.361 825.518 903.137 826.121 898.305 C 826.462 895.568 826.912 888.273 827.121 882.093 L 827.500 870.856 823.149 877.408 C 814.180 890.913 800.400 900.740 785.000 904.615 C 772.464 907.769 753.185 905.428 740.000 899.150 C 717.567 888.468 703.006 861.001 703.001 829.360 C 702.996 794.208 721.134 767.801 751.000 759.478 C 760.695 756.776 779.312 756.921 788.217 759.768 C 796.424 762.391 800.001 764.201 806.586 769.065 C 812.724 773.598 818.910 780.473 823.069 787.387 L 826.146 792.500 825.582 780.980 C 825.271 774.645 824.729 766.697 824.376 763.319 L 823.734 757.177 815.758 754.026 C 799.834 747.733 790.310 745.941 770.500 745.510 C 760.600 745.294 749.800 745.510 746.500 745.988 "/></g>
<g fill="#1E191AFF" stroke="#1E191AFF">
<path d="M 1456.000 746.029 C 1441.149 749.146 1426.633 758.909 1420.735 769.745 C 1411.117 787.417 1413.962 807.967 1427.976 822.045 C 1434.850 828.951 1443.659 834.480 1460.861 842.685 C 1469.462 846.788 1478.821 851.896 1481.659 854.036 C 1492.706 862.368 1495.761 876.918 1489.243 890.158 C 1483.625 901.569 1475.001 906.346 1459.967 906.374 C 1451.347 906.390 1449.789 906.090 1443.708 903.244 C 1433.622 898.524 1425.414 890.125 1418.091 877.032 C 1417.331 875.674 1416.364 873.424 1415.941 872.032 C 1414.976 868.856 1414.762 890.826 1415.664 900.384 L 1416.314 907.268 1422.731 910.177 C 1426.260 911.777 1433.501 914.266 1438.824 915.707 C 1446.954 917.908 1450.657 918.334 1462.000 918.371 C 1473.620 918.410 1476.467 918.088 1482.448 916.060 C 1502.270 909.341 1516.791 894.278 1519.995 877.114 C 1523.688 857.326 1517.653 839.669 1503.650 829.290 C 1500.267 826.784 1487.600 819.893 1475.500 813.978 C 1450.770 801.890 1445.227 798.166 1441.980 791.458 C 1440.092 787.558 1439.821 785.690 1440.227 779.361 C 1440.626 773.152 1441.207 771.166 1443.641 767.703 C 1449.462 759.422 1456.811 756.462 1469.500 757.290 C 1480.660 758.018 1487.489 761.255 1495.917 769.809 C 1499.542 773.489 1503.657 778.785 1505.062 781.579 L 1507.616 786.657 1507.281 775.079 C 1506.691 754.646 1506.464 753.595 1502.198 751.537 C 1494.091 747.625 1485.647 745.872 1473.000 745.476 C 1466.125 745.260 1458.475 745.509 1456.000 746.029 "/></g>
<g fill="#1E191AFF" stroke="#1E191AFF">
<path d="M 1924.000 799.011 C 1908.732 801.645 1892.694 813.803 1885.338 828.320 C 1879.948 838.957 1878.688 844.619 1878.624 858.500 C 1878.572 869.647 1878.901 872.490 1880.929 878.448 C 1888.913 901.895 1907.033 916.517 1930.561 918.498 C 1956.019 920.642 1979.129 906.183 1983.854 885.154 L 1984.753 881.153 1979.349 886.990 C 1968.964 898.207 1956.941 903.560 1944.000 902.728 C 1939.394 902.431 1934.710 901.427 1931.860 900.125 C 1917.611 893.612 1908.000 876.589 1908.000 857.864 L 1908.000 852.000 1947.500 852.000 L 1987.000 852.000 1987.000 848.958 C 1987.000 842.977 1983.859 830.389 1980.773 824.000 C 1971.297 804.384 1949.211 794.663 1924.000 799.011 M 1943.889 810.943 C 1951.205 814.676 1956.285 823.560 1957.563 834.855 L 1958.258 841.000 1933.117 841.000 L 1907.976 841.000 1908.571 836.750 C 1911.615 815.001 1928.154 802.916 1943.889 810.943 "/></g>
<g fill="#1E191AFF" stroke="#1E191AFF">
<path d="M 1163.181 799.050 C 1154.359 800.631 1144.137 806.005 1136.678 812.982 C 1129.227 819.953 1124.367 827.749 1120.380 839.130 C 1118.152 845.490 1117.800 848.144 1117.813 858.500 C 1117.826 868.609 1118.234 871.773 1120.403 878.578 C 1126.226 896.844 1139.635 910.396 1158.000 916.574 C 1162.195 917.985 1166.347 918.410 1175.500 918.363 C 1185.953 918.310 1188.372 917.966 1194.260 915.692 C 1197.979 914.256 1202.939 911.762 1205.283 910.149 C 1214.377 903.893 1221.857 893.330 1223.448 884.500 L 1224.168 880.500 1221.144 884.658 C 1214.313 894.051 1199.876 902.052 1188.431 902.786 C 1166.108 904.219 1149.374 887.252 1147.407 861.190 L 1146.713 852.000 1186.357 852.000 L 1226.000 852.000 1226.000 847.417 C 1226.000 841.221 1222.420 827.568 1219.278 821.780 C 1214.161 812.357 1205.631 805.225 1194.529 801.088 C 1187.637 798.520 1171.861 797.494 1163.181 799.050 M 1180.263 809.574 C 1189.257 812.638 1197.000 824.881 1197.000 836.038 L 1197.000 841.000 1172.360 841.000 L 1147.720 841.000 1148.264 835.730 C 1148.953 829.058 1153.394 819.606 1158.008 814.992 C 1161.397 811.603 1169.047 808.196 1173.572 808.062 C 1174.711 808.028 1177.722 808.708 1180.263 809.574 "/></g>
<g fill="#1E191AFF" stroke="#1E191AFF">
<path d="M 1287.000 798.943 C 1260.305 803.959 1240.887 828.917 1240.664 858.500 C 1240.465 884.886 1254.735 906.303 1278.734 915.637 C 1284.636 917.932 1287.033 918.278 1297.500 918.346 C 1310.709 918.432 1316.240 917.154 1325.710 911.829 C 1335.542 906.300 1344.759 894.453 1346.673 884.887 C 1347.277 881.865 1347.033 882.004 1340.796 888.241 C 1336.277 892.760 1331.893 895.932 1326.446 898.624 C 1318.993 902.307 1318.129 902.500 1309.052 902.500 C 1300.832 902.500 1298.720 902.134 1293.907 899.877 C 1287.560 896.901 1280.338 889.877 1276.652 883.096 C 1273.374 877.066 1270.000 863.988 1270.000 857.312 L 1270.000 852.000 1309.644 852.000 L 1349.288 852.000 1348.630 844.117 C 1346.838 822.629 1336.279 808.015 1317.529 801.073 C 1310.848 798.600 1294.791 797.480 1287.000 798.943 M 1307.691 811.559 C 1314.617 815.618 1319.378 824.939 1320.176 836.000 L 1320.500 840.500 1295.750 840.767 L 1271.000 841.035 1271.011 838.267 C 1271.038 831.287 1276.104 819.959 1281.474 814.870 C 1288.945 807.790 1299.076 806.510 1307.691 811.559 "/></g>
<g fill="#1E191AFF" stroke="#1E191AFF">
<path d="M 1846.500 745.689 C 1844.850 745.902 1840.125 746.709 1836.000 747.481 C 1831.875 748.253 1826.138 749.178 1823.250 749.536 C 1820.363 749.895 1818.000 750.336 1818.000 750.517 C 1818.000 750.698 1819.350 752.196 1821.000 753.846 L 1824.000 756.846 1824.000 833.788 C 1824.000 910.114 1823.983 910.751 1821.927 913.365 L 1819.855 916.000 1838.500 916.000 L 1857.145 916.000 1855.073 913.365 C 1853.014 910.748 1853.000 910.183 1853.000 827.865 C 1853.000 749.556 1852.904 745.008 1851.250 745.150 C 1850.288 745.232 1848.150 745.475 1846.500 745.689 "/></g>
<g fill="#1E191AFF" stroke="#1E191AFF">
<path d="M 1779.000 799.570 C 1774.875 800.315 1767.788 801.474 1763.250 802.144 C 1758.713 802.815 1755.000 803.732 1755.000 804.182 C 1755.000 804.632 1755.353 805.000 1755.784 805.000 C 1756.216 805.000 1757.341 806.307 1758.284 807.904 C 1759.844 810.544 1760.000 815.364 1760.000 860.769 C 1760.000 909.799 1759.961 910.779 1757.927 913.365 L 1755.855 916.000 1774.042 916.000 L 1792.230 916.000 1790.365 913.250 C 1788.609 910.660 1788.483 907.223 1788.211 854.250 C 1788.052 823.313 1787.602 798.048 1787.211 798.108 C 1786.820 798.167 1783.125 798.825 1779.000 799.570 "/></g>
<g fill="#1E191AFF" stroke="#1E191AFF">
<path d="M 1768.741 748.418 C 1763.842 750.181 1762.262 751.566 1759.927 756.143 C 1757.523 760.855 1757.531 763.369 1759.964 768.729 C 1763.444 776.396 1771.695 779.555 1779.371 776.160 C 1785.251 773.559 1787.993 769.215 1787.993 762.500 C 1787.993 751.812 1778.534 744.893 1768.741 748.418 "/></g>
</svg>
